PathFileType	3	(X/Y/Z)	D:\Jess\PFP\Labelled\PA17\20250829\SRRun01.trc
DataRate	CameraRate	NumFrames	NumMarkers	Units	OrigDataRate	OrigDataStartFrame	OrigNumFrames
250.0	250.0	4	33	mm	250.0	36875	2501
Frame#	Time	C7			T10			CLAV			LSHO			RSHO			LASIS			RASIS			LPSIS			RPSIS			LILCR			RILCR			LGTR			LTHI			LLTHI			LLEP			LPSH			LLSH			LDSH			LLMAL			LTOE			L5TH			LHEE			RGTR			RTHI			RLTHI			RLEP			RPSH			RLSH			RDSH			RLMAL			RTOE			R5TH			RHEE			
		X1	Y1	Z1	X2	Y2	Z2	X3	Y3	Z3	X4	Y4	Z4	X5	Y5	Z5	X6	Y6	Z6	X7	Y7	Z7	X8	Y8	Z8	X9	Y9	Z9	X10	Y10	Z10	X11	Y11	Z11	X12	Y12	Z12	X13	Y13	Z13	X14	Y14	Z14	X15	Y15	Z15	X16	Y16	Z16	X17	Y17	Z17	X18	Y18	Z18	X19	Y19	Z19	X20	Y20	Z20	X21	Y21	Z21	X22	Y22	Z22	X23	Y23	Z23	X24	Y24	Z24	X25	Y25	Z25	X26	Y26	Z26	X27	Y27	Z27	X28	Y28	Z28	X29	Y29	Z29	X30	Y30	Z30	X31	Y31	Z31	X32	Y32	Z32	X33	Y33	Z33	

1876	147.496	789.9487032058184	1474.696556559168	-1063.635292038923	773.7359778979967	1241.042945773576	-997.1280348087404	823.5012809462504	1382.391225116924	-1206.050907140759	640.118503747319	1458.54307540741	-1153.187877864228	971.0403688115454	1431.42877576876	-1102.268504587712	684.7067923380484	947.3472262026619	-1201.440043537296	919.7242367122448	955.5395352413178	-1171.12537589708	762.7845619414818	1029.969949326615	-991.9981341523935	798.8841304630208	1029.98639265909	-986.3583146343997	628.2314325049879	1039.069282468743	-1145.836554312616	960.2788725848823	1041.136760343312	-1102.41963139058	603.0031025462584	891.2944585283361	-1122.801729374415	684.8289539763155	685.6553644793498	-1188.140878026883	619.4332975490461	607.8252450462704	-1046.723109190974	632.1627708131837	465.6341017873738	-1008.54192058589	666.9564616035481	375.9419518897082	-996.8679571666859	638.3819866566666	404.9366288607519	-827.8286744269518	662.0999891232518	301.2896116011256	-791.7429927649181	649.8085045017941	305.5954997417041	-667.5799455287025	599.9567786979818	167.5479738489451	-650.8200697545004	588.5858078781837	197.9109934622986	-616.036882124363	716.2770974764481	336.6178317178065	-635.2800739793998	993.5423024785608	895.4003092456993	-1093.752896394519	876.4451722879891	748.6905500580997	-1249.358297368362	946.773760498516	631.3341991315516	-1169.912366479076	904.1616355091043	472.342660194569	-1213.635247510158	842.2642295426409	408.9723425582352	-1254.008992315881	905.9607090252906	289.7477944445844	-1165.48207202156	854.6075461192911	210.7417970721724	-1197.479713251628	873.6747114607191	100.97301869572	-1134.706082971996	873.0684094189918	60.48356014913507	-1273.336459087769	910.0057767289653	38.59927131942352	-1236.610216107076	833.8185855992133	66.86017800940202	-1066.838413448666	
1877	147.5	790.9220635322338	1472.85816826207	-1063.516579758273	775.1235482822681	1238.699910970801	-996.6050953264962	823.4993018711775	1379.911257587989	-1206.255033638394	640.0395801447241	1455.986483877937	-1151.78913094056	972.3171275448873	1428.444671568271	-1103.036736208944	685.2298398368657	943.7699223751869	-1200.603870347154	921.440327445345	952.8290668128624	-1170.334501461806	762.4447739947187	1026.276514090413	-990.6266721359508	798.6747886628368	1026.719642717515	-984.988436666241	628.4103371591763	1035.040874228096	-1145.175309671836	961.3060106263953	1038.025140476301	-1101.402643156458	603.3526935540585	887.0626565095553	-1123.010205665754	685.1416803428924	684.2264883957574	-1189.770817199227	618.5333579040012	604.7809720278919	-1049.866376264375	630.9600813383854	463.2483421216691	-1014.082239718875	665.5275671373547	373.8126779345074	-1002.396616774624	638.1414609557252	405.2089800951019	-833.4019003659606	661.4449034828186	302.1204900245771	-796.1888570641918	650.1389021478623	308.5205402752695	-672.0087803822048	597.4857777744273	171.7203446052211	-655.2339957157711	586.3327592672258	202.4927784747472	-620.8090044297782	717.1216133810615	338.4424604967882	-639.3974614966257	994.400092083665	892.9256048115938	-1092.653145040376	877.4680227969948	748.2283065397875	-1249.753523564703	946.7091934224991	629.8838844621424	-1169.194928895772	903.4028800373272	471.0727758048085	-1212.799621648905	841.3797093889167	407.0895267710392	-1252.045464997561	905.2331812795052	289.2264601302682	-1161.282989127103	853.7495882409828	209.6295195570201	-1191.407552109778	873.0078216248799	101.2131878547025	-1125.985152902379	872.8683864620187	59.89007457224403	-1264.127392160583	909.9892106377835	38.68116068953791	-1227.081793402911	833.4579833027738	67.35817331413921	-1057.560820163223	
1878	147.504	791.8801817699606	1471.163282947785	-1063.455228429168	776.4983820475395	1236.531879600291	-996.0619701724271	823.4513856224995	1377.509777920213	-1206.460919090399	639.9611204130709	1453.509562487399	-1150.439874552818	973.5573508510948	1425.531791581949	-1103.884098817698	685.7250909947772	940.1745233320055	-1199.714391566166	923.1765623563003	950.2750324915623	-1169.539509315095	761.9487191388141	1022.755414643212	-989.2629243806887	798.3116380948416	1023.662297855044	-983.6349476917142	628.5862182406854	1030.999337047703	-1144.45448102134	962.2911197987274	1035.163932822401	-1100.286084158391	603.673967767857	882.8994448610516	-1123.18850272262	685.4566256907859	682.992901148278	-1191.394087404382	617.6165081371062	601.9815462702762	-1053.008910108946	629.8055402229834	461.0175376508496	-1019.748438341793	664.225684110443	371.8345819382437	-1008.125312911103	637.8655710676268	405.3603994720357	-839.2058851557367	660.853857215097	302.8472319311701	-800.9759729563907	650.4701910993225	311.1584544584194	-676.812445511216	595.2082570803072	175.5416527930078	-660.1926995708195	584.2289833455914	206.6694732564532	-626.083715602409	717.8869406667391	340.0322878754306	-643.8130427719129	995.2861468974885	890.8229152682204	-1091.550261286003	878.6613020518334	747.6473079338483	-1249.900285225318	946.7080985329715	628.4579783996555	-1168.130638845054	902.7079455875025	469.7417837969898	-1211.522157225522	840.5968577356196	405.183697460974	-1249.722538273718	904.5503543326781	288.672704877459	-1156.81529485798	852.9488597914825	208.5536124280365	-1185.154204024396	872.3766621272687	101.4853609019116	-1117.231834111014	872.6488420584245	59.48610681894728	-1254.900288623887	909.9220813976343	38.86614272807486	-1217.592796892289	833.1168793085174	67.83353835782809	-1048.286113358056	
1879	147.508	792.8186521262694	1469.615104290442	-1063.449130929582	777.8555531124914	1234.552373949281	-995.5022593012296	823.3557298841584	1375.201550614845	-1206.66589228701	639.8854940493541	1451.127626646178	-1149.144819280767	974.745441833599	1422.712643598892	-1104.812671435184	686.1792836840041	936.6092154697454	-1198.778668664213	924.8998015529078	947.9006015740481	-1168.758045348896	761.3109684961145	1019.45549534983	-987.9319888294469	797.8059926651124	1020.85166182501	-982.3255533500543	628.7598207581401	1027.0005936182	-1143.656584501126	963.2184394197602	1032.587900982413	-1099.083761316227	603.964210681776	878.8685854274377	-1123.319552836052	685.7725488270171	681.9700413579109	-1193.022065643295	616.6986154846052	599.4330580210013	-1056.157095137489	628.711827744962	458.9506309090783	-1025.546356025788	663.0574780987143	370.0138760080184	-1014.049004709196	637.5573799248617	405.3963197311075	-845.223338679114	660.3255186009175	303.4628282387782	-806.0908729254753	650.7909222784327	313.4908952037106	-681.9672235698076	593.1341522821872	178.9758544053295	-665.6741990329886	582.2818009524211	210.4026471886669	-631.8324608148447	718.5596107924579	341.3797880413096	-648.5082629145305	996.1757077187643	889.0957340044794	-1090.455530024949	880.0119643828114	746.9015611342809	-1249.793812264498	946.7620341500642	627.0340689108302	-1166.716714704938	902.0946420537389	468.3299445086291	-1209.77121715522	839.9378387948607	403.2368219889461	-1247.019270520666	903.9274551614038	288.0724354618725	-1152.059030436038	852.2214839813699	207.4971340080498	-1178.710469902317	871.7948420730808	101.7687816045487	-1108.443317757391	872.4220291938333	59.22988236573426	-1245.656948118121	909.8183042051063	39.11516365971947	-1208.138348864451	832.8032650418268	68.28116531996953	-1039.00663194424	
